<?xml version="1.0" encoding="utf-8"?>
<!-- Generator: Adobe Illustrator 25.2.0, SVG Export Plug-In . SVG Version: 6.00 Build 0)  -->
<svg version="1.1" id="Layer_1" xmlns="http://www.w3.org/2000/svg" xmlns:xlink="http://www.w3.org/1999/xlink" x="0px" y="0px"
	 viewBox="0 0 24 24" style="enable-background:new 0 0 24 24;" xml:space="preserve">
<style type="text/css">
	.st0{fill:#171B21;}
</style>
<path class="st0" d="M11,8h4l1-4.2c0.1-0.5,0.6-0.9,1.2-0.8c0.5,0.1,0.9,0.6,0.8,1.2v0.1L17,8h3c0.6,0,1,0.4,1,1s-0.4,1-1,1h-3.5
	l-1,4H18c0.6,0,1,0.4,1,1s-0.4,1-1,1h-3l-1,4.2c-0.1,0.5-0.7,0.9-1.2,0.7s-0.9-0.7-0.7-1.2L13,16H9l-1,4.2c-0.1,0.5-0.7,0.9-1.2,0.7
	S5.9,20.3,6,19.8L7,16H4c-0.6,0-1-0.4-1-1s0.4-1,1-1h3.5l1-4H6c-0.6,0-1-0.4-1-1s0.4-1,1-1h3l1-4.2c0.1-0.5,0.6-0.9,1.2-0.8
	c0.5,0.1,0.9,0.6,0.8,1.2v0.1L11,8z M10.5,10l-1,4h3.9l1-4C14.5,10,10.5,10,10.5,10z"/>
</svg>
